<svg xmlns="http://www.w3.org/2000/svg" height="591.6pt" version="1.1" viewBox="1 1 591.6 591.6" width="591.6pt">
<g id="surface1">
<path d="M 592 530.757812 L 592 592 L 530.757812 592 L 127.585938 188.828125 L 188.828125 127.585938 Z M 592 530.757812 " style=" stroke:none;fill-rule:nonzero;fill:rgb(85.490196%,86.666667%,87.45098%);fill-opacity:1;" />
<path d="M 0 40.828125 L 15.308594 56.136719 L 35.722656 66.34375 L 122.484375 153.101562 L 153.101562 122.484375 L 66.34375 35.722656 L 56.136719 15.308594 L 40.828125 0 Z M 0 40.828125 " style=" stroke:none;fill-rule:nonzero;fill:rgb(60%,32.941176%,19.215686%);fill-opacity:1;" />
<path d="M 188.828125 66.34375 L 66.34375 188.828125 C 49.433594 188.828125 35.722656 202.535156 35.722656 219.449219 C 35.722656 236.359375 49.433594 250.070312 66.34375 250.070312 C 83.257812 250.070312 96.964844 236.359375 96.964844 219.449219 L 219.449219 96.964844 C 236.359375 96.964844 250.070312 83.257812 250.070312 66.34375 C 250.070312 49.433594 236.359375 35.722656 219.449219 35.722656 C 202.535156 35.722656 188.828125 49.433594 188.828125 66.34375 Z M 188.828125 66.34375 " style=" stroke:none;fill-rule:nonzero;fill:rgb(99.215686%,71.372549%,18.431373%);fill-opacity:1;" />
<path d="M 150.972656 165.425781 L 165.410156 150.988281 L 558.363281 543.945312 L 543.929688 558.382812 Z M 150.972656 165.425781 " style=" stroke:none;fill-rule:nonzero;fill:rgb(78.039216%,79.215686%,80%);fill-opacity:1;" />
<path d="M 35.722656 66.34375 L 42.941406 73.5625 L 73.5625 42.941406 L 66.34375 35.722656 L 61.539062 26.097656 L 26.097656 61.539062 Z M 35.722656 66.34375 " style=" stroke:none;fill-rule:nonzero;fill:rgb(32.941176%,19.607843%,12.941176%);fill-opacity:1;" />
<path d="M 64.238281 94.855469 L 94.859375 64.230469 L 109.292969 78.667969 L 78.671875 109.289062 Z M 64.238281 94.855469 " style=" stroke:none;fill-rule:nonzero;fill:rgb(32.941176%,19.607843%,12.941176%);fill-opacity:1;" />
<path d="M 472.507812 411.265625 C 460.839844 438.867188 445.632812 464.832031 427.273438 488.511719 L 443.125 504.363281 C 461.914062 481.257812 477.652344 455.820312 489.933594 428.691406 Z M 472.507812 411.265625 " style=" stroke:none;fill-rule:nonzero;fill:rgb(78.039216%,79.215686%,80%);fill-opacity:1;" />
<path d="M 0 530.757812 L 0 592 L 61.242188 592 L 464.414062 188.828125 L 403.171875 127.585938 Z M 0 530.757812 " style=" stroke:none;fill-rule:nonzero;fill:rgb(85.490196%,86.666667%,87.45098%);fill-opacity:1;" />
<path d="M 592 40.828125 L 576.691406 56.136719 L 556.277344 66.34375 L 469.515625 153.101562 L 438.898438 122.484375 L 525.65625 35.722656 L 535.863281 15.308594 L 551.171875 0 Z M 592 40.828125 " style=" stroke:none;fill-rule:nonzero;fill:rgb(60%,32.941176%,19.215686%);fill-opacity:1;" />
<path d="M 403.171875 66.34375 L 525.65625 188.828125 C 542.566406 188.828125 556.277344 202.535156 556.277344 219.449219 C 556.277344 236.359375 542.566406 250.070312 525.65625 250.070312 C 508.742188 250.070312 495.035156 236.359375 495.035156 219.449219 L 372.550781 96.964844 C 355.640625 96.964844 341.929688 83.257812 341.929688 66.34375 C 341.929688 49.433594 355.640625 35.722656 372.550781 35.722656 C 389.464844 35.722656 403.171875 49.433594 403.171875 66.34375 Z M 403.171875 66.34375 " style=" stroke:none;fill-rule:nonzero;fill:rgb(99.215686%,71.372549%,18.431373%);fill-opacity:1;" />
<path d="M 33.601562 543.949219 L 426.558594 150.992188 L 440.992188 165.425781 L 48.035156 558.382812 Z M 33.601562 543.949219 " style=" stroke:none;fill-rule:nonzero;fill:rgb(78.039216%,79.215686%,80%);fill-opacity:1;" />
<path d="M 556.277344 66.34375 L 549.058594 73.5625 L 518.4375 42.941406 L 525.65625 35.722656 L 530.460938 26.097656 L 565.902344 61.539062 Z M 556.277344 66.34375 " style=" stroke:none;fill-rule:nonzero;fill:rgb(32.941176%,19.607843%,12.941176%);fill-opacity:1;" />
<path d="M 482.703125 78.667969 L 497.136719 64.234375 L 527.757812 94.855469 L 513.324219 109.289062 Z M 482.703125 78.667969 " style=" stroke:none;fill-rule:nonzero;fill:rgb(32.941176%,19.607843%,12.941176%);fill-opacity:1;" />
<path d="M 119.492188 411.265625 C 131.160156 438.867188 146.367188 464.832031 164.726562 488.511719 L 148.875 504.363281 C 130.085938 481.253906 114.347656 455.820312 102.070312 428.691406 Z M 119.492188 411.265625 " style=" stroke:none;fill-rule:nonzero;fill:rgb(78.039216%,79.215686%,80%);fill-opacity:1;" />
<path d="M 296 592 C 171.761719 536.097656 91.863281 412.523438 91.863281 276.28125 L 91.863281 240.453125 C 91.894531 231.820312 98.40625 224.59375 106.988281 223.664062 C 145.816406 219.070312 180.457031 197.117188 201.179688 163.964844 L 214.34375 142.898438 L 377.65625 142.898438 L 390.820312 163.964844 C 411.542969 197.117188 446.183594 219.070312 485.011719 223.664062 C 493.59375 224.59375 500.109375 231.820312 500.136719 240.453125 L 500.136719 276.28125 C 500.136719 412.523438 420.238281 536.097656 296 592 Z M 296 592 " style=" stroke:none;fill-rule:nonzero;fill:rgb(26.27451%,59.607843%,81.960784%);fill-opacity:1;" />
<path d="M 485.011719 223.664062 C 463.292969 221.03125 442.59375 212.90625 424.882812 200.054688 C 366.703125 338.960938 261.0625 431.445312 166.148438 490.269531 C 200.585938 534.167969 245.140625 569.066406 296 592 C 420.238281 536.097656 500.136719 412.523438 500.136719 276.28125 L 500.136719 240.453125 C 500.105469 231.820312 493.59375 224.59375 485.011719 223.664062 Z M 485.011719 223.664062 " style=" stroke:none;fill-rule:nonzero;fill:rgb(24.313725%,54.901961%,78.039216%);fill-opacity:1;" />
<path d="M 296 546.609375 C 195.667969 493.738281 132.8125 389.699219 132.691406 276.28125 L 132.691406 260.480469 C 175.519531 249.957031 212.527344 223.082031 235.78125 185.613281 L 236.972656 183.722656 L 355.027344 183.722656 L 356.191406 185.613281 C 379.460938 223.082031 416.472656 249.957031 459.308594 260.480469 L 459.308594 276.28125 C 459.1875 389.699219 396.332031 493.738281 296 546.609375 Z M 296 546.609375 " style=" stroke:none;fill-rule:nonzero;fill:rgb(24.313725%,54.901961%,78.039216%);fill-opacity:1;" />
<path d="M 163.308594 285.792969 L 183.722656 285.792969 L 183.722656 306.207031 L 163.308594 306.207031 Z M 163.308594 285.792969 " style=" stroke:none;fill-rule:nonzero;fill:rgb(26.27451%,59.607843%,81.960784%);fill-opacity:1;" />
<path d="M 234.757812 234.757812 L 255.171875 234.757812 L 255.171875 255.171875 L 234.757812 255.171875 Z M 234.757812 234.757812 " style=" stroke:none;fill-rule:nonzero;fill:rgb(26.27451%,59.607843%,81.960784%);fill-opacity:1;" />
<path d="M 336.828125 234.757812 L 357.242188 234.757812 L 357.242188 255.171875 L 336.828125 255.171875 Z M 336.828125 234.757812 " style=" stroke:none;fill-rule:nonzero;fill:rgb(26.27451%,59.607843%,81.960784%);fill-opacity:1;" />
<path d="M 285.792969 489.929688 L 306.207031 489.929688 L 306.207031 510.34375 L 285.792969 510.34375 Z M 285.792969 489.929688 " style=" stroke:none;fill-rule:nonzero;fill:rgb(26.27451%,59.607843%,81.960784%);fill-opacity:1;" />
<path d="M 183.722656 357.242188 L 204.136719 357.242188 L 204.136719 377.65625 L 183.722656 377.65625 Z M 183.722656 357.242188 " style=" stroke:none;fill-rule:nonzero;fill:rgb(26.27451%,59.607843%,81.960784%);fill-opacity:1;" />
<path d="M 224.550781 428.691406 L 244.964844 428.691406 L 244.964844 449.101562 L 224.550781 449.101562 Z M 224.550781 428.691406 " style=" stroke:none;fill-rule:nonzero;fill:rgb(26.27451%,59.607843%,81.960784%);fill-opacity:1;" />
<path d="M 408.277344 285.792969 L 428.691406 285.792969 L 428.691406 306.207031 L 408.277344 306.207031 Z M 408.277344 285.792969 " style=" stroke:none;fill-rule:nonzero;fill:rgb(26.27451%,59.607843%,81.960784%);fill-opacity:1;" />
<path d="M 387.863281 357.242188 L 408.277344 357.242188 L 408.277344 377.65625 L 387.863281 377.65625 Z M 387.863281 357.242188 " style=" stroke:none;fill-rule:nonzero;fill:rgb(26.27451%,59.607843%,81.960784%);fill-opacity:1;" />
<path d="M 347.035156 428.691406 L 367.449219 428.691406 L 367.449219 449.101562 L 347.035156 449.101562 Z M 347.035156 428.691406 " style=" stroke:none;fill-rule:nonzero;fill:rgb(26.27451%,59.607843%,81.960784%);fill-opacity:1;" />
</g>
</svg>