<svg width="512" height="512" xmlns="http://www.w3.org/2000/svg">

 <g>
  <title>background</title>
  <rect fill="none" id="canvas_background" height="402" width="582" y="-1" x="-1"/>
 </g>
 <g>
  <title>Layer 1</title>
  <path id="svg_1" fill="#1dc4a2" d="m437.02,74.98c-48.35,-48.35 -112.64,-74.98 -181.02,-74.98s-132.67,26.63 -181.02,74.98s-74.98,112.64 -74.98,181.02s26.63,132.67 74.98,181.02c48.35,48.35 112.64,74.98 181.02,74.98s132.67,-26.63 181.02,-74.98s74.98,-112.64 74.98,-181.02s-26.63,-132.67 -74.98,-181.02zm-181.02,363.02c-100.52,0 -182,-81.48 -182,-182s81.48,-182 182,-182s182,81.48 182,182s-81.48,182 -182,182z"/>
  <polygon id="svg_2" fill="#8e8e8e" points="437.84,272.87 311.44,271.57 420.03,336.26 404.68,362.04 296.09,297.34 357.41,407.87   331.17,422.43 269.86,311.9 267.26,438.27 256,438.04 237.27,437.65 239.86,311.28 174.06,419.2 148.45,403.58 214.25,295.66   103.09,355.84 88.81,329.46 199.96,269.28 73.62,265.39 74.55,235.4 200.89,239.3 93.65,172.39 109.53,146.94 216.77,213.84   157.73,102.08 184.26,88.07 241,195.49 241,74 271,74 271,200.4 334.57,91.15 360.5,106.24 296.93,215.49 406.82,153.04   421.65,179.12 311.75,241.57 438.14,242.87 "/>
  <path stroke="null" id="svg_3" fill="#4f4e54" d="m316.24,256c0,33.22 -27.02,60.24 -60.24,60.24s-60.24,-27.02 -60.24,-60.24s27.02,-60.24 60.24,-60.24s60.24,27.02 60.24,60.24z"/>
  <polygon id="svg_4" fill="#777777" points="438.8399963378906,273.8699951171875 312.44000244140625,272.57000732421875 421.0299987792969,337.260009765625 405.67999267578125,363.0400085449219 297.0899963378906,298.3399963378906 358.4100036621094,408.8699951171875 332.1700134277344,423.42999267578125 270.8599853515625,312.8999938964844 268.260009765625,439.2699890136719 257,439.0400085449219 257,75 272,75 272,201.39999389648438 335.57000732421875,92.1500015258789 361.5,107.23999786376953 297.92999267578125,216.49000549316406 407.82000732421875,154.0399932861328 422.6499938964844,180.1199951171875 312.75,242.57000732421875 439.1400146484375,243.8699951171875 "/>
  <path stroke="null" id="svg_5" fill="#4b4a4f" d="m256,316.24l0,-120.48c33.22,0 60.24,27.02 60.24,60.24s-27.02,60.24 -60.24,60.24z"/>
  <path id="svg_6" fill="#18ad8f" d="m512,256c0,68.38 -26.63,132.67 -74.98,181.02s-112.64,74.98 -181.02,74.98l0,-74c100.52,0 182,-81.48 182,-182s-81.48,-182 -182,-182l0,-74c68.38,0 132.67,26.63 181.02,74.98s74.98,112.64 74.98,181.02z"/>
  <polygon id="svg_7" fill="#504e56" points="515,320.4200134277344 515,362.0398864746094 259,380.6827697753906 135.4199981689453,389.67999267578125 106.94000244140625,350.1341857910156 259,339.0628967285156 "/>
  <path stroke="null" id="svg_8" fill="#434347" d="m112.118668,320.839001c-27.872386,0 -50.548335,23.049781 -50.548335,51.381668s22.675948,51.381668 50.548335,51.381668s50.548335,-23.049781 50.548335,-51.381668s-22.675238,-51.381668 -50.548335,-51.381668z"/>
  <g id="svg_10"/>
  <g id="svg_11"/>
  <g id="svg_12"/>
  <g id="svg_13"/>
  <g id="svg_14"/>
  <g id="svg_15"/>
  <g id="svg_16"/>
  <g id="svg_17"/>
  <g id="svg_18"/>
  <g id="svg_19"/>
  <g id="svg_20"/>
  <g id="svg_21"/>
  <g id="svg_22"/>
  <g id="svg_23"/>
  <g id="svg_24"/>
 </g>
</svg>