<svg xmlns="http://www.w3.org/2000/svg" height="700pt" version="1.1" viewBox="0 -3 700 700" width="700pt">
<g id="surface1">
<path d="M 256.25 88.574219 C 270.058594 88.574219 281.25 77.382812 281.25 63.574219 C 281.25 49.765625 270.058594 38.574219 256.25 38.574219 C 242.441406 38.574219 231.25 49.765625 231.25 63.574219 C 231.25 66.890625 229.929688 70.070312 227.585938 72.414062 L 77.585938 222.414062 C 75.242188 224.757812 72.066406 226.074219 68.75 226.074219 C 56.269531 226.054688 45.683594 235.242188 43.949219 247.601562 C 42.21875 259.960938 49.863281 271.703125 61.871094 275.121094 C 73.871094 278.535156 86.5625 272.570312 91.59375 261.152344 C 91.65625 260.996094 91.726562 260.851562 91.816406 260.710938 C 93.089844 257.660156 93.75 254.382812 93.75 251.074219 C 93.75 247.757812 95.070312 244.578125 97.414062 242.234375 L 247.414062 92.234375 C 249.757812 89.890625 252.933594 88.574219 256.25 88.574219 Z M 256.25 88.574219 " style=" stroke:none;fill-rule:nonzero;fill:rgb(0%,0%,0%);fill-opacity:1;" />
<path d="M 172.910156 225.058594 C 181.125 220.308594 188.84375 214.742188 195.945312 208.445312 L 181.25 193.757812 L 161.4375 213.574219 Z M 172.910156 225.058594 " style=" stroke:none;fill-rule:nonzero;fill:rgb(0%,0%,0%);fill-opacity:1;" />
<path d="M 213.324219 190.472656 C 216.933594 186.015625 220.269531 181.351562 223.328125 176.503906 L 229.375 166.828125 L 218.796875 156.257812 L 198.9375 176.074219 Z M 213.324219 190.472656 " style=" stroke:none;fill-rule:nonzero;fill:rgb(0%,0%,0%);fill-opacity:1;" />
<path d="M 48.925781 63.570312 L 68.75 43.746094 L 94.824219 69.820312 L 75 89.648438 Z M 48.925781 63.570312 " style=" stroke:none;fill-rule:nonzero;fill:rgb(0%,0%,0%);fill-opacity:1;" />
<path d="M 92.675781 107.335938 L 112.5 87.507812 L 144.8125 119.824219 L 124.992188 139.648438 Z M 92.675781 107.335938 " style=" stroke:none;fill-rule:nonzero;fill:rgb(0%,0%,0%);fill-opacity:1;" />
<path d="M 605.175781 69.824219 L 631.25 43.75 L 651.078125 63.574219 L 625 89.648438 Z M 605.175781 69.824219 " style=" stroke:none;fill-rule:nonzero;fill:rgb(0%,0%,0%);fill-opacity:1;" />
<path d="M 37.5 0 L 5.175781 32.324219 L 13.664062 40.800781 L 28.789062 48.363281 L 53.539062 23.613281 L 45.976562 8.492188 Z M 37.5 0 " style=" stroke:none;fill-rule:nonzero;fill:rgb(0%,0%,0%);fill-opacity:1;" />
<path d="M 686.335938 40.800781 L 694.824219 32.324219 L 662.5 0 L 654.023438 8.492188 L 646.460938 23.613281 L 671.210938 48.363281 Z M 686.335938 40.800781 " style=" stroke:none;fill-rule:nonzero;fill:rgb(0%,0%,0%);fill-opacity:1;" />
<path d="M 527.089844 225.058594 L 538.5625 213.574219 L 518.75 193.757812 L 504.054688 208.445312 C 511.15625 214.742188 518.875 220.308594 527.089844 225.058594 Z M 527.089844 225.058594 " style=" stroke:none;fill-rule:nonzero;fill:rgb(0%,0%,0%);fill-opacity:1;" />
<path d="M 555.175781 119.820312 L 587.492188 87.5 L 607.3125 107.324219 L 575 139.644531 Z M 555.175781 119.820312 " style=" stroke:none;fill-rule:nonzero;fill:rgb(0%,0%,0%);fill-opacity:1;" />
<path d="M 602.585938 242.234375 C 604.929688 244.578125 606.25 247.757812 606.25 251.074219 C 606.25 254.382812 606.910156 257.660156 608.183594 260.710938 C 608.273438 260.851562 608.34375 260.996094 608.40625 261.152344 C 613.4375 272.570312 626.128906 278.535156 638.128906 275.121094 C 650.136719 271.703125 657.78125 259.960938 656.050781 247.601562 C 654.316406 235.242188 643.730469 226.054688 631.25 226.074219 C 627.933594 226.074219 624.757812 224.757812 622.414062 222.414062 L 472.414062 72.414062 C 470.070312 70.070312 468.75 66.890625 468.75 63.574219 C 468.75 49.765625 457.558594 38.574219 443.75 38.574219 C 429.941406 38.574219 418.75 49.765625 418.75 63.574219 C 418.75 77.382812 429.941406 88.574219 443.75 88.574219 C 447.066406 88.574219 450.242188 89.890625 452.585938 92.234375 Z M 602.585938 242.234375 " style=" stroke:none;fill-rule:nonzero;fill:rgb(0%,0%,0%);fill-opacity:1;" />
<path d="M 470.671875 166.828125 L 476.726562 176.503906 C 479.78125 181.351562 483.117188 186.015625 486.722656 190.472656 L 501.0625 176.074219 L 481.25 156.257812 Z M 470.671875 166.828125 " style=" stroke:none;fill-rule:nonzero;fill:rgb(0%,0%,0%);fill-opacity:1;" />
<path d="M 46.335938 666.164062 L 28.664062 648.484375 L 143.335938 533.8125 C 138.535156 525.265625 134.039062 516.542969 129.851562 507.648438 L 0 637.5 L 0 694.824219 L 57.324219 694.824219 L 172.75 579.390625 C 167.128906 571.734375 161.6875 563.953125 156.5 555.9375 Z M 46.335938 666.164062 " style=" stroke:none;fill-rule:nonzero;fill:rgb(0%,0%,0%);fill-opacity:1;" />
<path d="M 587.5 276.800781 C 587.480469 275.945312 587.324219 275.101562 587.035156 274.296875 C 586.796875 273.851562 586.625 273.363281 586.402344 272.898438 C 585.101562 270.503906 582.710938 268.890625 580 268.585938 C 528.671875 262.664062 482.851562 233.671875 455.523438 189.824219 L 443.023438 169.882812 L 256.9375 169.882812 L 244.4375 189.824219 C 217.132812 233.6875 171.320312 262.699219 120 268.652344 C 117.289062 268.949219 114.898438 270.5625 113.597656 272.960938 C 113.375 273.429688 113.203125 273.914062 112.964844 274.367188 C 112.675781 275.164062 112.519531 276.007812 112.5 276.859375 L 112.5 320.742188 C 112.6875 480.554688 205.242188 625.855469 350 693.574219 C 494.78125 625.851562 587.34375 480.511719 587.5 320.671875 Z M 562.5 320.671875 C 562.714844 464.3125 483.0625 596.164062 355.820312 662.796875 C 352.179688 664.722656 347.820312 664.722656 344.179688 662.796875 C 216.9375 596.164062 137.285156 464.3125 137.5 320.671875 L 137.5 301.324219 C 137.496094 295.5625 141.429688 290.546875 147.027344 289.171875 C 196.335938 277.105469 238.941406 246.164062 265.671875 203.003906 L 267.101562 200.710938 C 269.382812 197.050781 273.394531 194.824219 277.710938 194.824219 L 422.289062 194.824219 C 426.621094 194.824219 430.644531 197.066406 432.921875 200.75 L 434.351562 203.050781 C 461.085938 246.1875 503.679688 277.109375 552.972656 289.171875 C 558.570312 290.546875 562.503906 295.5625 562.5 301.324219 Z M 562.5 320.671875 " style=" stroke:none;fill-rule:nonzero;fill:rgb(0%,0%,0%);fill-opacity:1;" />
<path d="M 556.664062 533.8125 L 671.335938 648.484375 L 653.664062 666.164062 L 543.4375 555.9375 C 538.3125 563.953125 532.871094 571.734375 527.1875 579.390625 L 642.675781 694.824219 L 700 694.824219 L 700 637.5 L 570.148438 507.648438 C 565.941406 516.523438 561.445312 525.242188 556.664062 533.8125 Z M 556.664062 533.8125 " style=" stroke:none;fill-rule:nonzero;fill:rgb(0%,0%,0%);fill-opacity:1;" />
<path d="M 415.386719 219.824219 L 284.601562 219.824219 C 256.140625 263.84375 212.804688 296.167969 162.5 310.898438 L 162.5 320.671875 C 162.296875 452.65625 234.21875 574.210938 350 637.546875 C 465.78125 574.210938 537.703125 452.65625 537.5 320.671875 L 537.5 310.898438 C 487.195312 296.164062 443.859375 263.84375 415.386719 219.824219 Z M 187.5 332.324219 L 212.5 332.324219 L 212.5 357.324219 L 187.5 357.324219 Z M 237.5 444.824219 L 212.5 444.824219 L 212.5 419.824219 L 237.5 419.824219 Z M 287.5 532.324219 L 262.5 532.324219 L 262.5 507.324219 L 287.5 507.324219 Z M 300 294.824219 L 275 294.824219 L 275 269.824219 L 300 269.824219 Z M 362.5 607.324219 L 337.5 607.324219 L 337.5 582.324219 L 362.5 582.324219 Z M 400 269.824219 L 425 269.824219 L 425 294.824219 L 400 294.824219 Z M 437.5 532.324219 L 412.5 532.324219 L 412.5 507.324219 L 437.5 507.324219 Z M 487.5 332.324219 L 512.5 332.324219 L 512.5 357.324219 L 487.5 357.324219 Z M 462.5 419.824219 L 487.5 419.824219 L 487.5 444.824219 L 462.5 444.824219 Z M 462.5 419.824219 " style=" stroke:none;fill-rule:nonzero;fill:rgb(0%,0%,0%);fill-opacity:1;" />
</g>
</svg>