<svg width="512.001" height="512.001" xmlns="http://www.w3.org/2000/svg">

 <g>
  <title>background</title>
  <rect fill="none" id="canvas_background" height="402" width="582" y="-1" x="-1"/>
 </g>
 <g>
  <title>Layer 1</title>
  <circle id="svg_1" fill="#ff5959" r="256" cy="256" cx="256.001"/>
  <path id="svg_2" fill="#e84545" d="m512,256c0,-2.546 -0.048,-5.08 -0.122,-7.608l-141.356,-141.357l-247.104,278.048l126.845,126.845c1.908,0.042 3.82,0.073 5.738,0.073c141.385,-0.001 255.999,-114.616 255.999,-256.001z"/>
  <path id="svg_3" fill="#495959" d="m125.412,476.213c38.236,22.723 82.884,35.787 130.589,35.787s92.353,-13.064 130.589,-35.787l-42.696,-107.213l-175.786,0l-42.696,107.213z"/>
  <path id="svg_4" fill="#323C3C" d="m386.59,476.213l-42.696,-107.213l-88.322,0l0,142.996c0.143,0 0.285,0.004 0.429,0.004c47.705,0 92.353,-13.064 130.589,-35.787z"/>
  <path id="svg_5" fill="#55696E" d="m164.243,495.045c28.487,10.942 59.418,16.955 91.758,16.955s63.271,-6.013 91.758,-16.955l-29.164,-121.379l-125.188,0l-29.164,121.379z"/>
  <path id="svg_6" fill="#495959" d="m347.759,495.045l-29.164,-121.379l-63.023,0l0,138.328c0.143,0 0.285,0.005 0.429,0.005c32.34,0.001 63.271,-6.012 91.758,-16.954z"/>
  <path id="svg_7" fill="#FFFFFF" d="m395.503,146.353l-14.346,-24.389c-19.06,-32.403 -53.846,-52.298 -91.439,-52.298l-67.433,0c-37.593,0 -72.379,19.895 -91.439,52.298l-14.346,24.389c-21.281,36.178 -29.944,78.399 -24.629,120.034l9.57,74.966c4.693,36.765 35.981,64.313 73.045,64.313l0.515,0l0,-18l162,0l0,18l0.516,0c37.064,0 68.351,-27.547 73.045,-64.313l9.57,-74.966c5.315,-41.634 -3.348,-83.856 -24.629,-120.034z"/>
  <path id="svg_8" fill="#E9EDF5" d="m395.503,146.353l-14.346,-24.389c-19.06,-32.403 -53.846,-52.298 -91.439,-52.298l-34.145,0l0,318l81.428,0l0,18l0.516,0c37.064,0 68.351,-27.547 73.045,-64.313l9.57,-74.966c5.315,-41.634 -3.348,-83.856 -24.629,-120.034z"/>
  <path id="svg_9" fill="#008ff9" d="m378.537,178.347l0,-60.581c-19.521,-29.909 -52.882,-48.1 -88.82,-48.1l-67.433,0c-35.937,0 -69.298,18.191 -88.82,48.1l0,60.581c0,67.675 54.861,122.536 122.536,122.536l0,0c67.676,0 122.537,-54.861 122.537,-122.536z"/>
  <path id="svg_10" fill="#005FF7" d="m289.717,69.667l-34.145,0l0,231.211c0.143,0 0.285,0.005 0.428,0.005l0,0c67.675,0 122.536,-54.861 122.536,-122.536l0,-60.581c-19.52,-29.908 -52.881,-48.099 -88.819,-48.099z"/>
  <path id="svg_11" fill="#19A4F9" d="m179.365,352.118l2.452,-7.853c7.2,-23.054 -5.653,-47.58 -28.708,-54.78l-60.711,-18.959l9.042,70.828c0.043,0.333 0.103,0.66 0.15,0.992l60.419,18.868c7.304,2.281 15.075,-1.792 17.356,-9.096z"/>
  <path id="svg_12" fill="#008FF9" d="m410.562,341.354l9.042,-70.828l-60.711,18.959c-23.054,7.2 -35.907,31.725 -28.708,54.78l2.452,7.853c2.281,7.304 10.052,11.377 17.356,9.096l60.419,-18.868c0.046,-0.332 0.107,-0.659 0.15,-0.992z"/>
  <g id="svg_13"/>
  <g id="svg_14"/>
  <g id="svg_15"/>
  <g id="svg_16"/>
  <g id="svg_17"/>
  <g id="svg_18"/>
  <g id="svg_19"/>
  <g id="svg_20"/>
  <g id="svg_21"/>
  <g id="svg_22"/>
  <g id="svg_23"/>
  <g id="svg_24"/>
  <g id="svg_25"/>
  <g id="svg_26"/>
  <g id="svg_27"/>
 </g>
</svg>